<?xml version="1.0" standalone="no"?>
<!DOCTYPE svg PUBLIC "-//W3C//DTD SVG 20010904//EN"
 "http://www.w3.org/TR/2001/REC-SVG-20010904/DTD/svg10.dtd">
<svg version="1.0" xmlns="http://www.w3.org/2000/svg"
 width="304.000000pt" height="284.000000pt" viewBox="0 0 304.000000 284.000000"
 preserveAspectRatio="xMidYMid meet">

<g transform="translate(0.000000,284.000000) scale(0.100000,-0.100000)"
fill="#FFFFFF" stroke="none">
<path d="M2053 2523 l-163 -3 -1 -78 c-2 -123 -17 -144 -18 -24 l-1 103 -82
-3 -83 -3 -7 -72 c-4 -40 -12 -94 -17 -120 -8 -40 -9 -28 -8 72 l2 120 -81 3
-81 3 -6 -89 c-4 -49 -13 -120 -21 -158 -8 -38 -17 -99 -21 -137 -4 -37 -11
-70 -16 -73 -9 -5 -7 21 11 146 5 36 9 83 9 105 0 37 -2 35 -26 -38 -14 -43
-27 -76 -29 -74 -3 2 7 53 22 113 14 60 29 130 33 157 l8 47 -78 0 -79 0 -1
-42 c0 -24 -8 -72 -18 -108 -23 -79 -73 -207 -66 -165 28 158 45 265 45 288 0
27 0 27 -70 27 l-69 0 -5 -32 c-3 -18 -8 -68 -11 -111 -7 -90 -23 -146 -25
-87 -1 28 -3 31 -9 15 -5 -11 -6 16 -3 59 3 53 1 77 -5 73 -6 -4 -14 -19 -18
-34 -3 -15 -17 -50 -30 -78 -26 -57 -81 -150 -70 -120 71 199 93 265 99 288 6
26 5 27 -37 27 -40 0 -45 -3 -60 -35 -10 -20 -20 -63 -23 -96 -9 -87 -25 -132
-19 -51 3 40 1 61 -5 57 -6 -3 -10 -12 -10 -20 0 -8 -12 -27 -26 -42 -15 -15
-31 -40 -36 -55 -6 -16 -14 -28 -20 -28 -5 0 2 21 17 46 15 25 28 56 30 67 2
12 8 38 14 57 6 19 8 50 5 68 -6 32 -7 33 -53 30 -37 -2 -46 -7 -49 -23 -11
-77 -37 -185 -45 -185 -5 0 -6 8 -2 18 9 22 12 84 4 74 -14 -16 -28 -76 -23
-98 6 -24 5 -24 -61 -24 -53 0 -71 -4 -81 -17 -13 -17 -14 -17 -8 0 6 16 -5
17 -150 16 -101 -1 -156 -5 -156 -12 0 -16 91 -167 101 -167 5 0 9 -8 9 -18 0
-9 11 -34 25 -54 14 -20 25 -40 25 -43 0 -4 13 -25 29 -48 15 -23 31 -52 35
-63 4 -12 18 -34 31 -48 13 -14 22 -26 19 -26 -2 0 3 -14 11 -30 l16 -31 32
22 32 21 -28 -26 -27 -25 36 -63 c19 -35 44 -76 54 -93 10 -16 25 -41 33 -55
38 -68 61 -107 77 -130 9 -14 19 -29 21 -35 2 -5 21 -41 43 -78 35 -63 41 -68
65 -63 25 6 25 6 4 -6 l-22 -13 42 -70 c23 -39 49 -83 57 -99 13 -25 19 -27
56 -24 47 3 48 -2 4 -17 l-29 -10 125 -215 c70 -118 148 -254 176 -302 27 -49
52 -88 56 -88 4 0 57 88 117 195 61 107 115 194 121 195 7 0 42 -54 79 -120
36 -66 70 -120 74 -120 4 0 117 210 253 468 233 443 533 1010 637 1207 128
239 171 323 171 329 0 6 -425 5 -777 -1z m-426 -595 c-3 -8 -6 -5 -6 6 -1 11
2 17 5 13 3 -3 4 -12 1 -19z m-16 -64 c-5 -22 -12 -51 -15 -66 -8 -46 -48
-158 -59 -165 -7 -4 -8 1 -2 13 4 10 24 74 43 141 20 68 37 121 40 119 2 -2
-1 -21 -7 -42z m-611 -318 c0 -2 -8 -10 -17 -17 -16 -13 -17 -12 -4 4 13 16
21 21 21 13z " fill="#FFFFFF"/>
<path d="M630 2498 c0 -13 5 -30 10 -38 9 -13 13 -12 26 5 37 48 37 55 -1 55
-30 0 -35 -3 -35 -22z" fill="#FFFFFF"/>
<path d="M719 2498 c0 -13 -1 -43 -1 -68 l0 -45 -7 45 c-6 42 -7 44 -19 23
-16 -28 -15 -52 3 -83 11 -19 14 -21 15 -7 0 9 4 17 8 17 10 0 42 93 42 121 0
29 -40 25 -41 -3z" fill="#FFFFFF"/>
<path d="M923 2484 c-17 -56 -16 -75 3 -41 8 15 14 40 12 55 -3 24 -4 23 -15
-14z" fill="#FFFFFF"/>
<path d="M1100 2463 c0 -68 5 -66 14 5 4 33 3 52 -4 52 -6 0 -10 -24 -10 -57z" fill="#FFFFFF"/>
</g>
</svg>
