<?xml version="1.0" standalone="no"?>
<!DOCTYPE svg PUBLIC "-//W3C//DTD SVG 20010904//EN"
 "http://www.w3.org/TR/2001/REC-SVG-20010904/DTD/svg10.dtd">
<svg version="1.0" xmlns="http://www.w3.org/2000/svg"
 width="285.000000pt" height="124.000000pt" viewBox="0 0 285.000000 124.000000"
 preserveAspectRatio="xMidYMid meet">

<g transform="translate(0.000000,124.000000) scale(0.100000,-0.100000)"
fill="#000000" stroke="none">
<path d="M2303 943 l-63 -4 1 -122 c1 -109 2 -116 10 -67 12 70 44 136 77 158
14 9 50 22 81 28 l56 12 -50 -1 c-27 0 -78 -2 -112 -4z" fill="#FFFFFF"/>
<path d="M2545 928 c-1 -19 -104 -187 -341 -550 -24 -37 -44 -70 -44 -73 0 -3
53 -4 118 -3 64 0 101 3 82 5 -19 3 -39 8 -43 12 -5 5 62 118 148 252 87 134
175 271 196 305 21 33 39 63 39 67 0 4 -35 7 -77 7 -74 0 -78 -1 -78 -22z" fill="#FFFFFF"/>
<path d="M296 853 c-16 -49 -31 -95 -34 -103 -2 -8 2 -6 11 5 13 17 17 17 21
5 22 -60 66 -180 75 -202 l11 -28 -95 0 -94 0 30 81 c16 45 28 83 26 86 -4 3
-77 -191 -77 -205 0 -3 6 2 13 11 10 15 27 17 107 15 l95 -3 32 -90 c18 -49
31 -95 28 -102 -2 -6 -14 -13 -27 -16 -13 -2 29 -5 92 -5 98 -2 111 0 90 11
-21 10 -43 62 -139 320 -63 169 -119 307 -126 307 -6 0 -24 -39 -39 -87z" fill="#FFFFFF"/>
<path d="M1059 929 c25 -5 49 -13 53 -17 5 -5 8 -132 6 -283 -3 -289 -7 -311
-51 -325 -34 -11 -11 -14 27 -3 53 15 111 71 130 126 13 37 16 93 16 270 l0
223 28 6 c15 3 32 7 37 9 6 2 -57 3 -140 3 -113 0 -139 -2 -106 -9z" fill="#FFFFFF"/>
<path d="M1640 933 c49 -9 50 -17 50 -319 0 -201 -3 -285 -11 -290 -7 -4 -37
-10 -68 -14 -36 -5 15 -7 139 -7 107 0 169 3 138 6 -31 3 -63 12 -70 19 -10
10 -14 83 -17 292 -3 296 -2 304 42 313 12 2 -34 4 -103 4 -69 0 -114 -2 -100
-4z" fill="#FFFFFF"/>
<path d="M2697 593 c-4 -3 -7 -19 -7 -35 0 -46 -39 -151 -68 -182 -34 -35 -61
-47 -137 -56 -48 -6 -31 -8 83 -9 l142 -1 0 145 c0 80 -1 145 -3 145 -2 0 -7
-3 -10 -7z" fill="#FFFFFF"/>
<path d="M915 495 c-46 -45 -24 -155 37 -185 l23 -11 -21 18 c-46 39 -55 95
-12 72 43 -23 108 32 91 78 -20 57 -77 70 -118 28z" fill="#FFFFFF"/>
<path d="M136 407 c-19 -50 -57 -90 -101 -105 -24 -9 -8 -11 84 -10 l115 2
-41 17 c-45 19 -55 41 -43 96 12 52 6 52 -14 0z" fill="#FFFFFF"/>
</g>
</svg>
